# xmcd
# 
# Track frame offsets:
#     150
#     24037
#     39086
#     64965
# 
# Disc length: 1184
# 
# Revision: 0
# Processed by: cddbd v1.5.2PL0 Copyright (c) Steve Scherf et al.
# Submitted via: fre:ac v1.0.17
# 
DISCID=23049e04
DTITLE=Christophe Jaffrelot - Le Pakistan - entre pouvoir militaire, islamisme et démocratie
DYEAR=2008
DGENRE=Speech
TTITLE0=1
TTITLE1=2
TTITLE2=3
TTITLE3=4
EXTD=
EXTT0=
EXTT1=
EXTT2=
EXTT3=
PLAYORDER=
